<mxfile host="app.diagrams.net" agent="Mozilla/5.0 (Windows NT 10.0; Win64; x64) AppleWebKit/537.36 (KHTML, like Gecko) Chrome/135.0.0.0 Safari/537.36" version="26.0.4">
  <diagram name="Page-1" id="rp7l90gZu1hTliIZRfsK">
    <mxGraphModel dx="2442" dy="1198" grid="1" gridSize="10" guides="1" tooltips="1" connect="1" arrows="1" fold="1" page="1" pageScale="1" pageWidth="3300" pageHeight="4681" math="0" shadow="0">
      <root>
        <mxCell id="0" />
        <mxCell id="1" parent="0" />
        <mxCell id="n5H3Dftn1izqegy4B1cH-1" value="" style="whiteSpace=wrap;html=1;aspect=fixed;fillColor=none;rounded=1;arcSize=7;" vertex="1" parent="1">
          <mxGeometry x="1640" y="150" width="880" height="880" as="geometry" />
        </mxCell>
      </root>
    </mxGraphModel>
  </diagram>
</mxfile>
